<svg xmlns="http://www.w3.org/2000/svg" version="1.1" xmlns:xlink="http://www.w3.org/1999/xlink" xmlns:svgjs="http://svgjs.dev/svgjs" width="600" height="600" preserveAspectRatio="none" viewBox="0 0 600 600"><g mask="url(&quot;#SvgjsMask2326&quot;)" fill="none"><rect width="600" height="600" x="0" y="0" fill="url(&quot;#SvgjsLinearGradient2327&quot;)"></rect><path d="M-20.11 265C59.66 262.37 96.35 120.28 273.23 139 450.11 157.72 437.56 588.78 566.57 667.46" stroke="rgba(111, 51, 194, 0.58)" stroke-width="2"></path><path d="M-19.46 106.02C31.43 107.37 75.19 181.02 169.85 181.02 264.5 181.02 211.4 47.47 359.15 106.02 506.91 164.57 449.38 573.97 548.46 691.7" stroke="rgba(111, 51, 194, 0.58)" stroke-width="2"></path><path d="M-111.74 439.31C-33.46 427.61 0.45 236.57 135.32 241.31 270.2 246.05 276.67 598.19 382.39 656.71" stroke="rgba(111, 51, 194, 0.58)" stroke-width="2"></path><path d="M-24.2 410.35C55.74 391.17 81.53 172.42 206.83 176.35 332.14 180.28 335.08 539.88 437.87 605.18" stroke="rgba(111, 51, 194, 0.58)" stroke-width="2"></path><path d="M-15.34 367.01C45.53 356.26 53.85 188.14 171.43 205.01 289.02 221.88 266.76 578.26 358.21 660.69" stroke="rgba(111, 51, 194, 0.58)" stroke-width="2"></path></g><defs><mask id="SvgjsMask2326"><rect width="600" height="600" fill="#ffffff"></rect></mask><linearGradient x1="100%" y1="50%" x2="0%" y2="50%" gradientUnits="userSpaceOnUse" id="SvgjsLinearGradient2327"><stop stop-color="rgba(204, 167, 255, 1)" offset="0"></stop><stop stop-color="rgba(229, 229, 229, 1)" offset="1"></stop></linearGradient></defs></svg>