<svg xmlns="http://www.w3.org/2000/svg" version="1.1" xmlns:xlink="http://www.w3.org/1999/xlink" xmlns:svgjs="http://svgjs.dev/svgjs" width="1399" height="1000" preserveAspectRatio="none" viewBox="0 0 1399 1000"><g mask="url(&quot;#SvgjsMask1088&quot;)" fill="none"><rect width="1399" height="1000" x="0" y="0" fill="url(&quot;#SvgjsLinearGradient1089&quot;)"></rect><path d="M-102.1 88.65C79.88 105.86 129.27 438.22 509.94 488.65 890.6 539.08 922.92 981.76 1121.97 1016.49" stroke="rgba(199, 169, 240, 0.58)" stroke-width="2"></path><path d="M-112.29 569.61C100.71 549.21 309.24 88.76 603.01 99.61 896.78 110.46 780.93 871.21 960.66 1050.75" stroke="rgba(199, 169, 240, 0.58)" stroke-width="2"></path><path d="M-28.34 803.16C78.15 804.56 175.29 928.16 378.91 928.16 582.54 928.16 577.8 802.15 786.16 803.16 994.52 804.17 1067.69 1089.07 1193.41 1104.91" stroke="rgba(199, 169, 240, 0.58)" stroke-width="2"></path><path d="M-188.49 707.71C-86.33 709.23 6.07 832.71 200.62 832.71 395.18 832.71 387.71 705.67 589.74 707.71 791.76 709.75 851.31 1027.27 978.85 1050.52" stroke="rgba(199, 169, 240, 0.58)" stroke-width="2"></path><path d="M-231.8 414.24C-115.78 415.41-8.32 539.24 215.16 539.24 438.64 539.24 398.55 391.05 662.11 414.24 925.67 437.43 924.24 1015.14 1109.07 1105.75" stroke="rgba(199, 169, 240, 0.58)" stroke-width="2"></path></g><defs><mask id="SvgjsMask1088"><rect width="1399" height="1000" fill="#ffffff"></rect></mask><linearGradient x1="100%" y1="50%" x2="0%" y2="50%" gradientUnits="userSpaceOnUse" id="SvgjsLinearGradient1089"><stop stop-color="rgba(204, 167, 255, 1)" offset="0"></stop><stop stop-color="rgba(229, 229, 229, 1)" offset="1"></stop></linearGradient></defs></svg>